<svg width="544" height="655" viewBox="0 0 544 655" fill="none" xmlns="http://www.w3.org/2000/svg">
<path fill-rule="evenodd" clip-rule="evenodd" d="M83.1109 174.607C65.0811 174.607 48.6387 179.968 33.8135 190.661C18.9884 201.353 8.74548 215.219 3.08496 232.231H166.641C154.002 193.835 126.179 174.607 83.1109 174.607Z" fill="#E94E18"/>
<path fill-rule="evenodd" clip-rule="evenodd" d="M356.493 271.676C356.493 196.651 330.077 132.678 277.216 79.6971C224.384 26.7159 160.441 0.240234 85.417 0.240234C55.1677 0.240234 26.7452 4.6129 0.0898438 13.2385V119.141C24.6487 104.615 52.1727 97.2777 82.6916 97.2777C133.217 97.2777 174.967 114.679 207.972 149.48C240.976 184.282 257.479 227.08 257.479 277.845C257.479 285.572 257.359 291.622 257.089 296.025L256.7 299.888H0.0898438V300.637C6.49911 344.454 34.5322 366.407 84.2489 366.407C117.763 366.407 141.992 353.768 156.937 328.52L158.105 326.574H248.194L245.888 331.995C232.231 367.305 211.596 394.889 184.012 414.746C155.41 435.381 122.525 445.684 85.417 445.684C53.6702 445.684 25.2477 438.406 0.0898438 423.911V529.723C26.7452 538.349 55.1677 542.722 85.417 542.722C160.172 542.722 224.025 516.246 277.006 463.265C329.987 410.283 356.463 346.43 356.463 271.676H356.493Z" fill="#E94E18"/>
<path fill-rule="evenodd" clip-rule="evenodd" d="M252.926 0C273.202 12.8485 292.4 28.3025 310.49 46.4521C372.606 108.718 403.664 183.772 403.664 271.675C403.664 359.578 372.606 434.602 310.49 496.718C292.4 514.808 273.172 530.262 252.896 543.08H543.23V0H252.956H252.926Z" fill="#E94E18"/>
<path fill-rule="evenodd" clip-rule="evenodd" d="M1.22998 567.333H47.4475V584.283H18.9321V601.56H47.4475V618.241H18.9321V635.967H47.4475V652.916H1.22998V567.363V567.333ZM114.183 571.869V592.787C105.317 587.177 97.5289 584.372 90.8494 584.372C84.1699 584.372 78.8382 586.76 74.8545 591.534C70.8408 596.309 68.8639 602.754 68.8639 610.811C68.8639 618.45 70.9606 624.568 75.184 629.163C79.3774 633.758 85.0085 636.027 92.0775 636.027C98.2478 636.027 105.616 633.43 114.213 628.268V648.977C104.598 652.319 96.5704 653.99 90.1305 653.99C79.0779 653.99 69.7025 649.753 62.0046 641.308C54.2767 632.863 50.4428 622.568 50.4428 610.393C50.4428 598.218 54.3666 587.535 62.2443 578.941C70.092 570.347 79.647 566.08 90.9093 566.08C98.158 566.08 105.946 567.99 114.243 571.809L114.183 571.869ZM115.231 610.065C115.231 597.413 119.245 586.998 127.272 578.762C135.3 570.526 144.825 566.408 155.817 566.408C167.978 566.408 178.073 570.556 186.01 578.822C193.978 587.088 197.961 597.562 197.961 610.184C197.961 622.807 194.008 633.162 186.13 641.457C178.252 649.753 168.338 653.901 156.357 653.901C144.375 653.901 134.551 649.783 126.793 641.517C119.065 633.251 115.201 622.777 115.201 610.035L115.231 610.065ZM156.626 583.477C149.737 583.358 144.196 585.834 140.002 590.907C135.779 595.98 133.682 602.545 133.682 610.572C133.682 618.182 135.839 624.478 140.122 629.462C144.405 634.445 149.827 636.952 156.387 636.952C163.276 636.952 168.817 634.475 173.04 629.551C177.264 624.627 179.391 618.122 179.391 610.035C179.391 601.948 177.324 595.712 173.16 590.878C168.997 586.043 163.485 583.567 156.626 583.447V583.477ZM257.418 567.333H274.731V652.886H257.598L219.887 597.502V652.886H202.245V567.333H219.617L257.388 622.33V567.333H257.418ZM281.8 567.333H328.017V584.283H299.502V601.56H328.017V618.241H299.502V635.967H328.017V652.916H281.8V567.363V567.333ZM333.289 567.333H360.307C368.514 567.333 375.014 569.601 379.776 574.107C384.539 578.613 386.935 584.73 386.935 592.429C386.935 596.816 385.827 601.381 383.64 606.126C381.454 610.871 377.41 614.571 371.539 617.257L394.483 652.886H374.205L352.938 619.793H350.932V652.886H333.229V567.333H333.289ZM351.111 582.582V604.873H354.915C364.141 604.873 368.724 600.934 368.724 593.086C368.724 589.863 367.525 587.327 365.129 585.417C362.733 583.537 359.408 582.582 355.155 582.582H351.081H351.111ZM464.483 585.894L452.742 597.353C450.286 592.937 447.231 589.594 443.606 587.416C439.982 585.208 436.178 584.134 432.224 584.134C425.814 584.134 420.213 586.67 415.48 591.743C410.748 596.816 408.381 602.814 408.381 609.737C408.381 617.078 410.748 623.314 415.48 628.417C420.213 633.52 425.904 636.086 432.584 636.086C436.208 636.086 439.712 635.131 443.067 633.222C446.422 631.312 449.117 627.731 451.154 622.479H431.715V605.798H469.605V616.869C469.605 622.568 467.718 628.686 463.974 635.221C460.23 641.756 455.288 646.53 449.147 649.544C443.007 652.558 436.837 654.08 430.577 654.08C419.224 654.08 409.669 649.813 401.882 641.249C394.094 632.684 390.2 622.121 390.2 609.528C390.2 597.592 394.214 587.386 402.241 578.912C410.268 570.437 419.943 566.199 431.236 566.199C445.673 566.199 456.756 572.794 464.513 585.954L464.483 585.894ZM472.331 567.333H489.973V652.886H472.331V567.333ZM497.012 567.333H543.23V584.283H514.715V601.56H543.23V618.241H514.715V635.967H543.23V652.916H497.012V567.363V567.333Z" fill="#1D1D1B"/>
</svg>
